<?xml version="1.0" standalone="no"?>
<!DOCTYPE svg PUBLIC "-//W3C//DTD SVG 1.1//EN" "http://www.w3.org/Graphics/SVG/1.1/DTD/svg11.dtd" >
<svg viewBox="0 -200 1000 1000">
  <g transform="matrix(1 0 0 -1 0 800)">
   <path fill="currentColor"
d="M603.241 124.604l50.9121 50.9121c6.59961 6.59961 10.1348 14.8486 10.6064 24.748c0.470703 9.89941 -3.06445 18.1494 -10.6064 24.749l-126.572 126.572l126.572 126.572c7.07031 7.07031 10.3701 15.5557 9.89941 25.4551
c-0.47168 9.90039 -3.77148 18.3848 -9.89941 25.4561l-50.2051 50.2051c-7.07129 7.07129 -15.5566 10.3711 -25.4561 9.89941s-18.3848 -3.77148 -25.4561 -9.89941l-126.571 -126.572l-125.865 125.865c-7.07129 7.07031 -15.5566 10.8418 -25.4561 11.3135
s-18.1494 -3.06445 -24.749 -10.6064l-50.9111 -50.9121c-6.59961 -6.59961 -10.1357 -14.8486 -10.6064 -24.749c-0.47168 -9.89941 3.2998 -18.3848 11.3135 -25.4551l125.865 -125.865l-126.572 -126.572c-6.59961 -6.59961 -9.89941 -15.085 -9.89941 -25.4561
s3.2998 -18.8555 9.89941 -25.4551l50.2041 -50.2051c7.07129 -7.07129 15.5566 -10.3711 25.4561 -9.89941s18.3848 3.77148 25.4561 9.89941l126.572 126.572l126.572 -126.572c6.59961 -6.59961 14.8486 -10.1348 24.748 -10.6064s18.1494 3.06445 24.749 10.6064z
M857 618v-536c0 -44 -15.6667 -81.6667 -47 -113c-31.3333 -31.3333 -69.3333 -47.3333 -114 -48h-535c-44.6667 0 -82.6667 16 -114 48c-31.3333 32 -47 69.6667 -47 113v536c0 44 15.6667 81.6667 47 113c31.3333 31.3333 69.3333 47.3333 114 48h535
c44.6667 0 82.6667 -16 114 -48s47 -69.6667 47 -113z" />
  </g>

</svg>
